<svg width="331" height="227" viewBox="0 0 331 227" fill="none" xmlns="http://www.w3.org/2000/svg">
<path d="M234.912 226H136.498L110.612 196.734L111.227 196.189L136.855 225.18H233.518L205.699 174.944L312.314 120.845L293.784 51.4557L328.745 24.5724L305.339 -110.172L263.001 -67.8337L262.418 -68.4201L305.884 -111.886L329.635 24.921L329.442 25.0727L294.718 51.7714L313.261 121.276L206.831 175.293L234.912 226ZM217.525 215.749H141.099L124.287 196.73L124.902 196.185L141.472 214.929H216.135L191.594 170.602L300.258 115.453L282.126 47.4945L317.591 20.2258L298.626 -88.9639L265.145 -55.4828L264.563 -56.061L299.163 -90.6615L318.485 20.5621L283.061 47.8021L301.218 115.871L300.923 116.023L192.721 170.962L217.525 215.749Z" stroke="#583BEB" stroke-width="1.5"/>
<path d="M179.497 196.886H81.0834L2 107.494L250.494 -141L250.629 -140.221L274.248 -4.20946L187.522 62.4656L242.469 34.508L257.842 92.1496L151.424 146.162L179.497 196.886ZM81.4483 196.066H178.107L150.293 145.814L256.907 91.719L241.944 35.6972L183.95 65.2007L183.515 64.5118L238.602 22.1571L273.342 -4.55391L249.936 -139.302L3.12355 107.514L81.4483 196.066Z" stroke="#583BEB" stroke-width="1.5"/>
</svg>
