<svg width="80" height="88" viewBox="0 0 80 88" fill="none" xmlns="http://www.w3.org/2000/svg">
<path d="M70.9175 46.1366L79.415 39.6727L73.6794 7.00623L63.2529 17.3311L63.7717 20.3027L72.05 12.1108L76.697 38.6243L69.3977 44.1844L68.0825 45.1822L68.5136 46.7729L72.4957 61.5516L48.3987 73.6551L46.0971 74.812L47.3466 77.0462L52.0958 85.5345H33.7271L29.6647 80.9867H26.3402L32.6092 88.0001H56.319L49.5239 75.8532L75.4256 62.8458L70.9175 46.1366Z" fill="white"/>
<path d="M61.9523 55.8396L36.0578 68.8397L42.8529 80.9866H19.1359L0 59.5849L60.206 0L65.9417 32.6665L57.4441 39.1304L44.0585 49.3179L58.2698 42.1671L61.9523 55.8396Z" fill="#FFBE00"/>
</svg>
